<svg xmlns="http://www.w3.org/2000/svg" width="49.818" height="49.129" viewBox="0 0 49.818 49.129">
  <g id="Group_5" data-name="Group 5" transform="translate(-1711.642 -37.936)">
    <g id="Group_2" data-name="Group 2" transform="translate(1372.741 -244.31)">
      <g id="Group_1" data-name="Group 1" transform="translate(354.175 297.175)">
        <path id="Path_18" data-name="Path 18" d="M168.9,159.179a9.723,9.723,0,1,0,9.723,9.723A9.734,9.734,0,0,0,168.9,159.179Z" transform="translate(-159.179 -159.179)" fill="#b1b1b1"/>
      </g>
    </g>
    <g id="Group_4" data-name="Group 4" transform="translate(1711.642 37.936)">
      <g id="Group_3" data-name="Group 3">
        <path id="Path_19" data-name="Path 19" d="M49.818,24.564,43.17,19.738l3.314-7.461-8.209-.893-.906-8.1L29.8,6.556,24.909,0,20.014,6.556,12.449,3.288l-.906,8.1-8.209.893,3.314,7.461L0,24.564l6.648,4.827L3.334,36.852l8.209.893.906,8.1,7.566-3.269,4.895,6.556L29.8,42.573l7.566,3.269.906-8.1,8.209-.893L43.17,29.391ZM24.909,36.922a12.358,12.358,0,1,1,12.53-12.357A12.459,12.459,0,0,1,24.909,36.922Z" fill="#b1b1b1"/>
      </g>
    </g>
  </g>
</svg>
